<svg width="19" height="20" viewBox="0 0 19 20" fill="none" xmlns="http://www.w3.org/2000/svg">
<path d="M9.53003 0C12.209 0 14.3807 2.37684 14.3807 5.30884C14.3807 7.34226 13.3361 9.10829 11.8022 10L13.581 10.7728L18.3145 12.8308C18.7718 13.0451 19 13.4086 19 13.923V18.8099C18.9624 19.4209 18.5713 19.9904 17.9373 20H1.09719C0.373316 19.941 0.00712967 19.3944 0 18.8099V13.923C0 13.4086 0.228226 13.0451 0.68548 12.8308L5.24761 10.7728L7.14356 9.93077C5.67259 9.01898 4.6793 7.29114 4.6793 5.30886C4.67933 2.37684 6.85108 0 9.53003 0Z" fill="#4D286D"/>
</svg>
