<svg width="19" height="14" viewBox="0 0 19 14" fill="none" xmlns="http://www.w3.org/2000/svg">
<path d="M17.886 0.00169706C16.0784 0.0988841 12.4855 0.452632 10.2674 1.73888C10.1144 1.82763 10.0276 1.98544 10.0276 2.15044V13.5213C10.0276 13.8823 10.4442 14.1104 10.7956 13.9429C13.0776 12.8548 16.3779 12.5579 18.0097 12.4766C18.5669 12.4488 19 12.0257 19 11.5185V0.961067C19.0003 0.407633 18.4937 -0.0308028 17.886 0.00169706ZM8.73257 1.73888C6.51487 0.452632 2.92196 0.0991966 1.11429 0.00169706C0.506675 -0.0308028 0 0.407633 0 0.961067V11.5188C0 12.0263 0.433115 12.4494 0.99026 12.4769C2.62277 12.5582 5.92474 12.8554 8.20676 13.9441C8.55708 14.1113 8.97238 13.8835 8.97238 13.5235V2.14481C8.97238 1.9795 8.88595 1.82794 8.73257 1.73888Z" fill="#4D286D"/>
</svg>
