<svg width="13" height="8" viewBox="0 0 13 8" fill="none" xmlns="http://www.w3.org/2000/svg">
<path d="M11.8305 2.93426C12.3464 2.47561 12.3929 1.68552 11.9343 1.16954C11.4756 0.653565 10.6855 0.60709 10.1695 1.06574L11.8305 2.93426ZM2.83045 1.06574C2.31448 0.60709 1.52439 0.653566 1.06574 1.16955C0.607091 1.68552 0.653567 2.47561 1.16954 2.93426L2.83045 1.06574ZM6.5 6L5.66955 6.93426L6.5 7.67244L7.33046 6.93426L6.5 6ZM10.1695 1.06574L5.66955 5.06574L7.33046 6.93426L11.8305 2.93426L10.1695 1.06574ZM7.33045 5.06574L2.83045 1.06574L1.16954 2.93426L5.66955 6.93426L7.33045 5.06574Z" fill="white"/>
</svg>
