<svg width="14" height="14" viewBox="0 0 14 14" fill="none" xmlns="http://www.w3.org/2000/svg">
<path d="M7 0C7.91925 -1.36979e-08 8.8295 0.18106 9.67878 0.532843C10.5281 0.884626 11.2997 1.40024 11.9497 2.05025C12.5998 2.70026 13.1154 3.47194 13.4672 4.32122C13.8189 5.1705 14 6.08075 14 7C14 7.91925 13.8189 8.8295 13.4672 9.67878C13.1154 10.5281 12.5998 11.2997 11.9497 11.9497C11.2997 12.5998 10.5281 13.1154 9.67878 13.4672C8.8295 13.8189 7.91925 14 7 14C5.14348 14 3.36301 13.2625 2.05025 11.9497C0.737498 10.637 0 8.85651 0 7C0 5.14348 0.737498 3.36301 2.05025 2.05025C3.36301 0.737498 5.14348 2.76642e-08 7 0ZM7 1.16667C5.4529 1.16667 3.96917 1.78125 2.87521 2.87521C1.78125 3.96917 1.16667 5.4529 1.16667 7C1.16667 8.5471 1.78125 10.0308 2.87521 11.1248C3.96917 12.2188 5.4529 12.8333 7 12.8333C8.5471 12.8333 10.0308 12.2188 11.1248 11.1248C12.2188 10.0308 12.8333 8.5471 12.8333 7C12.8333 5.4529 12.2188 3.96917 11.1248 2.87521C10.0308 1.78125 8.5471 1.16667 7 1.16667ZM7 9.91667C7.23206 9.91667 7.45462 10.0089 7.61872 10.1729C7.78281 10.337 7.875 10.5596 7.875 10.7917C7.875 11.0237 7.78281 11.2463 7.61872 11.4104C7.45462 11.5745 7.23206 11.6667 7 11.6667C6.76794 11.6667 6.54538 11.5745 6.38128 11.4104C6.21719 11.2463 6.125 11.0237 6.125 10.7917C6.125 10.5596 6.21719 10.337 6.38128 10.1729C6.54538 10.0089 6.76794 9.91667 7 9.91667ZM7 2.91667C7.61884 2.91667 8.21233 3.1625 8.64991 3.60008C9.0875 4.03767 9.33333 4.63116 9.33333 5.25C9.33333 6.10167 9.086 6.58 8.45367 7.24267L8.14567 7.55767C7.70583 8.015 7.58333 8.26233 7.58333 8.75C7.58333 8.90471 7.52188 9.05308 7.41248 9.16248C7.30308 9.27188 7.15471 9.33333 7 9.33333C6.84529 9.33333 6.69692 9.27188 6.58752 9.16248C6.47812 9.05308 6.41667 8.90471 6.41667 8.75C6.41667 7.89833 6.664 7.42 7.29633 6.75733L7.60433 6.44233C8.04417 5.985 8.16667 5.73767 8.16667 5.25C8.16667 4.94058 8.04375 4.64383 7.82496 4.42504C7.60616 4.20625 7.30942 4.08333 7 4.08333C6.69058 4.08333 6.39383 4.20625 6.17504 4.42504C5.95625 4.64383 5.83333 4.94058 5.83333 5.25C5.83333 5.40471 5.77187 5.55308 5.66248 5.66248C5.55308 5.77187 5.40471 5.83333 5.25 5.83333C5.09529 5.83333 4.94692 5.77187 4.83752 5.66248C4.72812 5.55308 4.66667 5.40471 4.66667 5.25C4.66667 4.63116 4.9125 4.03767 5.35008 3.60008C5.78767 3.1625 6.38116 2.91667 7 2.91667Z" fill="white"/>
</svg>
