<svg width="22" height="22" viewBox="0 0 22 22" fill="none" xmlns="http://www.w3.org/2000/svg">
<path fill-rule="evenodd" clip-rule="evenodd" d="M15.3251 13.8985L20.7048 19.2783C20.8939 19.4676 21.0001 19.7242 21 19.9917C20.9999 20.2592 20.8935 20.5157 20.7043 20.7048C20.5151 20.8939 20.2585 21.0001 19.991 21C19.7235 20.9999 19.467 20.8935 19.2779 20.7043L13.8981 15.3244C12.2899 16.5701 10.2676 17.1563 8.24253 16.9638C6.21748 16.7712 4.34182 15.8145 2.99713 14.2881C1.65245 12.7617 0.939738 10.7803 1.004 8.74712C1.06825 6.7139 1.90465 4.78152 3.34304 3.3431C4.78143 1.90468 6.71376 1.06826 8.74693 1.004C10.7801 0.939736 12.7614 1.65246 14.2877 2.99718C15.8141 4.3419 16.7708 6.21761 16.9634 8.24271C17.1559 10.2678 16.5697 12.2902 15.3241 13.8985H15.3251ZM9.00037 14.9994C10.5916 14.9994 12.1176 14.3673 13.2428 13.2421C14.368 12.1169 15.0001 10.5908 15.0001 8.99957C15.0001 7.40831 14.368 5.88222 13.2428 4.75702C12.1176 3.63183 10.5916 2.9997 9.00037 2.9997C7.40915 2.9997 5.88309 3.63183 4.75793 4.75702C3.63276 5.88222 3.00065 7.40831 3.00065 8.99957C3.00065 10.5908 3.63276 12.1169 4.75793 13.2421C5.88309 14.3673 7.40915 14.9994 9.00037 14.9994Z" fill="#4D286D" stroke="#4D286D"/>
</svg>
