<svg width="24" height="28" viewBox="0 0 24 28" fill="none" xmlns="http://www.w3.org/2000/svg">
<g filter="url(#filter0_d_171_16326)">
<path d="M16 12H8V9C8 7.89583 8.39062 6.95312 9.17188 6.17188C9.95312 5.39062 10.8958 5 12 5C13.1042 5 14.0469 5.39062 14.8281 6.17188C15.6094 6.95312 16 7.89583 16 9V12ZM3 13.5V22.5C3 22.9167 3.14583 23.2708 3.4375 23.5625C3.72917 23.8542 4.08333 24 4.5 24H19.5C19.9167 24 20.2708 23.8542 20.5625 23.5625C20.8542 23.2708 21 22.9167 21 22.5V13.5C21 13.0833 20.8542 12.7292 20.5625 12.4375C20.2708 12.1458 19.9167 12 19.5 12H19V9C19 7.08333 18.3125 5.4375 16.9375 4.0625C15.5625 2.6875 13.9167 2 12 2C10.0833 2 8.4375 2.6875 7.0625 4.0625C5.6875 5.4375 5 7.08333 5 9V12H4.5C4.08333 12 3.72917 12.1458 3.4375 12.4375C3.14583 12.7292 3 13.0833 3 13.5Z" fill="#735686"/>
</g>
<defs>
<filter id="filter0_d_171_16326" x="0" y="0" width="24" height="28" filterUnits="userSpaceOnUse" color-interpolation-filters="sRGB">
<feFlood flood-opacity="0" result="BackgroundImageFix"/>
<feColorMatrix in="SourceAlpha" type="matrix" values="0 0 0 0 0 0 0 0 0 0 0 0 0 0 0 0 0 0 127 0" result="hardAlpha"/>
<feOffset dy="1"/>
<feGaussianBlur stdDeviation="1.5"/>
<feComposite in2="hardAlpha" operator="out"/>
<feColorMatrix type="matrix" values="0 0 0 0 0 0 0 0 0 0 0 0 0 0 0 0 0 0 0.35 0"/>
<feBlend mode="normal" in2="BackgroundImageFix" result="effect1_dropShadow_171_16326"/>
<feBlend mode="normal" in="SourceGraphic" in2="effect1_dropShadow_171_16326" result="shape"/>
</filter>
</defs>
</svg>
