<svg width="20" height="15" viewBox="0 0 20 15" fill="none" xmlns="http://www.w3.org/2000/svg">
<path d="M18 0H2C0.9 0 0 0.84375 0 1.875V13.125C0 14.1562 0.9 15 2 15H18C19.1 15 20 14.1562 20 13.125V1.875C20 0.84375 19.1 0 18 0ZM17.6 3.98438L11.06 7.81875C10.41 8.20312 9.59 8.20312 8.94 7.81875L2.4 3.98438C2.29973 3.9316 2.21192 3.86031 2.14189 3.7748C2.07186 3.68929 2.02106 3.59135 1.99258 3.48691C1.96409 3.38247 1.9585 3.27369 1.97616 3.16716C1.99381 3.06064 2.03434 2.95858 2.09528 2.86716C2.15623 2.77574 2.23632 2.69686 2.33073 2.63531C2.42513 2.57375 2.53187 2.53079 2.6445 2.50903C2.75712 2.48727 2.87328 2.48716 2.98595 2.5087C3.09863 2.53025 3.20546 2.573 3.3 2.63437L10 6.5625L16.7 2.63437C16.7945 2.573 16.9014 2.53025 17.014 2.5087C17.1267 2.48716 17.2429 2.48727 17.3555 2.50903C17.4681 2.53079 17.5749 2.57375 17.6693 2.63531C17.7637 2.69686 17.8438 2.77574 17.9047 2.86716C17.9657 2.95858 18.0062 3.06064 18.0238 3.16716C18.0415 3.27369 18.0359 3.38247 18.0074 3.48691C17.9789 3.59135 17.9281 3.68929 17.8581 3.7748C17.7881 3.86031 17.7003 3.9316 17.6 3.98438Z" fill="#4D286D"/>
</svg>
