<svg width="35" height="25" viewBox="0 0 35 25" fill="none" xmlns="http://www.w3.org/2000/svg">
<path d="M28.2609 22.7827C28.1382 22.7829 28.0167 22.7588 27.9033 22.7118C27.7899 22.6648 27.687 22.5958 27.6004 22.5088L7.04408 1.95246C6.87625 1.77581 6.78407 1.54058 6.78719 1.29693C6.79031 1.05328 6.88848 0.820486 7.06078 0.648185C7.23308 0.475884 7.46588 0.377708 7.70953 0.374588C7.95318 0.371469 8.18841 0.463653 8.36506 0.631486L28.9214 21.1878C29.052 21.3185 29.1409 21.485 29.1769 21.6662C29.213 21.8473 29.1944 22.0352 29.1238 22.2058C29.0531 22.3765 28.9334 22.5224 28.7798 22.6251C28.6262 22.7278 28.4457 22.7826 28.2609 22.7827ZM17.5156 15.0653L14.4911 12.0408C14.4738 12.0237 14.4515 12.0123 14.4274 12.0085C14.4033 12.0046 14.3786 12.0084 14.3567 12.0192C14.3349 12.0301 14.317 12.0476 14.3056 12.0692C14.2942 12.0907 14.2898 12.1154 14.2931 12.1395C14.4152 12.9242 14.7836 13.6497 15.3452 14.2112C15.9067 14.7727 16.6322 15.1412 17.4169 15.2633C17.441 15.2666 17.4657 15.2622 17.4872 15.2508C17.5088 15.2394 17.5263 15.2215 17.5372 15.1997C17.548 15.1778 17.5518 15.1531 17.5479 15.129C17.5441 15.1049 17.5327 15.0826 17.5156 15.0653ZM18.4499 8.07498L21.4791 11.103C21.4964 11.1204 21.5187 11.1319 21.5429 11.1359C21.5671 11.1399 21.592 11.1362 21.614 11.1253C21.636 11.1144 21.6539 11.0968 21.6654 11.0751C21.6768 11.0533 21.6811 11.0286 21.6776 11.0043C21.5558 10.2185 21.1871 9.49196 20.6249 8.92973C20.0627 8.36751 19.3361 7.99881 18.5504 7.87701C18.526 7.87326 18.5012 7.87729 18.4792 7.88853C18.4573 7.89977 18.4396 7.91764 18.4284 7.9396C18.4173 7.96155 18.4134 7.98647 18.4172 8.01078C18.4211 8.0351 18.4325 8.05757 18.4499 8.07498Z" fill="#735686"/>
<g filter="url(#filter0_d_161_17886)">
<path d="M31.7052 12.5837C31.8985 12.2802 32.0008 11.9277 31.9997 11.5678C31.9987 11.208 31.8944 10.8561 31.6994 10.5537C30.1541 8.16405 28.1493 6.13412 25.9021 4.68291C23.4126 3.07578 20.6678 2.22607 17.9628 2.22607C16.5368 2.22803 15.1204 2.46054 13.7686 2.91459C13.7308 2.92718 13.6968 2.94924 13.6699 2.97867C13.643 3.00811 13.6241 3.04394 13.615 3.08275C13.6058 3.12156 13.6068 3.16207 13.6177 3.20041C13.6287 3.23875 13.6493 3.27364 13.6775 3.30178L16.4363 6.06053C16.4649 6.08924 16.5006 6.11 16.5397 6.12075C16.5788 6.1315 16.6201 6.13188 16.6594 6.12185C17.5945 5.89397 18.5725 5.91067 19.4993 6.17034C20.4261 6.43001 21.2704 6.92391 21.951 7.60449C22.6315 8.28506 23.1254 9.12939 23.3851 10.0562C23.6448 10.983 23.6615 11.961 23.4336 12.8961C23.4237 12.9353 23.4241 12.9764 23.4349 13.0155C23.4456 13.0545 23.4663 13.09 23.4949 13.1186L27.4631 17.0897C27.5044 17.1311 27.5597 17.1555 27.6181 17.158C27.6764 17.1606 27.7337 17.1413 27.7785 17.1037C29.3059 15.8018 30.6296 14.2781 31.7052 12.5837ZM17.9815 17.1761C17.1328 17.1762 16.2952 16.9836 15.5318 16.6128C14.7684 16.242 14.0992 15.7027 13.5745 15.0356C13.0499 14.3685 12.6835 13.591 12.5031 12.7618C12.3226 11.9325 12.3328 11.0731 12.5329 10.2483C12.5428 10.2091 12.5424 10.168 12.5316 10.129C12.5209 10.0899 12.5002 10.0544 12.4716 10.0258L8.56822 6.12068C8.52683 6.07925 8.47138 6.05487 8.41287 6.05238C8.35435 6.04989 8.29704 6.06948 8.25228 6.10725C6.82794 7.32253 5.50754 8.80118 4.30044 10.5292C4.08915 10.8325 3.97278 11.1917 3.96612 11.5613C3.95947 11.9308 4.06283 12.294 4.26307 12.6047C5.80538 15.0183 7.78976 17.0512 10.0025 18.4825C12.4955 20.0961 15.1737 20.9137 17.9628 20.9137C19.4032 20.9098 20.8343 20.6822 22.2049 20.2392C22.2431 20.227 22.2775 20.2051 22.3048 20.1758C22.3321 20.1465 22.3514 20.1106 22.3608 20.0717C22.3703 20.0327 22.3695 19.992 22.3587 19.9534C22.3479 19.9149 22.3273 19.8797 22.2989 19.8514L19.5267 17.0798C19.4981 17.0512 19.4626 17.0305 19.4236 17.0197C19.3846 17.009 19.3435 17.0085 19.3042 17.0185C18.8712 17.1234 18.4271 17.1763 17.9815 17.1761Z" fill="#735686"/>
</g>
<defs>
<filter id="filter0_d_161_17886" x="0.96582" y="0.226074" width="34.0342" height="24.6875" filterUnits="userSpaceOnUse" color-interpolation-filters="sRGB">
<feFlood flood-opacity="0" result="BackgroundImageFix"/>
<feColorMatrix in="SourceAlpha" type="matrix" values="0 0 0 0 0 0 0 0 0 0 0 0 0 0 0 0 0 0 127 0" result="hardAlpha"/>
<feOffset dy="1"/>
<feGaussianBlur stdDeviation="1.5"/>
<feComposite in2="hardAlpha" operator="out"/>
<feColorMatrix type="matrix" values="0 0 0 0 0 0 0 0 0 0 0 0 0 0 0 0 0 0 0.35 0"/>
<feBlend mode="normal" in2="BackgroundImageFix" result="effect1_dropShadow_161_17886"/>
<feBlend mode="normal" in="SourceGraphic" in2="effect1_dropShadow_161_17886" result="shape"/>
</filter>
</defs>
</svg>
