<svg width="34" height="25" viewBox="0 0 34 25" fill="none" xmlns="http://www.w3.org/2000/svg">
<g filter="url(#filter0_d_373_1689)">
<path d="M30.7 10.5484C29.1565 8.31063 27.1539 6.40969 24.9093 5.0507C22.426 3.5457 19.6844 2.75 16.9812 2.75C14.5009 2.75 12.062 3.41445 9.7322 4.72477C7.3563 6.06078 5.20381 8.01258 3.33424 10.5255C3.12319 10.8095 3.00695 11.1459 3.0003 11.4919C2.99365 11.838 3.0969 12.1781 3.29691 12.4691C4.83748 14.7293 6.82022 16.633 9.02987 17.9734C11.5178 19.4844 14.1953 20.25 16.9812 20.25C19.706 20.25 22.4534 19.4609 24.9262 17.9684C27.1697 16.6138 29.1681 14.7058 30.7058 12.4494C30.8989 12.1652 31.001 11.8351 31 11.4981C30.999 11.1612 30.8948 10.8316 30.7 10.5484ZM17.0011 16.75C15.8935 16.75 14.8108 16.4421 13.8899 15.8652C12.969 15.2883 12.2512 14.4684 11.8274 13.5091C11.4035 12.5498 11.2926 11.4942 11.5087 10.4758C11.7248 9.45738 12.2581 8.52192 13.0413 7.78769C13.8245 7.05346 14.8223 6.55345 15.9086 6.35088C16.9949 6.14831 18.1208 6.25227 19.1441 6.64963C20.1673 7.04699 21.0419 7.7199 21.6573 8.58326C22.2726 9.44661 22.601 10.4616 22.601 11.5C22.5993 12.8919 22.0088 14.2263 20.959 15.2106C19.9091 16.1948 18.4857 16.7484 17.0011 16.75Z" fill="#735686"/>
</g>
<defs>
<filter id="filter0_d_373_1689" x="0" y="0.75" width="34" height="23.5" filterUnits="userSpaceOnUse" color-interpolation-filters="sRGB">
<feFlood flood-opacity="0" result="BackgroundImageFix"/>
<feColorMatrix in="SourceAlpha" type="matrix" values="0 0 0 0 0 0 0 0 0 0 0 0 0 0 0 0 0 0 127 0" result="hardAlpha"/>
<feOffset dy="1"/>
<feGaussianBlur stdDeviation="1.5"/>
<feComposite in2="hardAlpha" operator="out"/>
<feColorMatrix type="matrix" values="0 0 0 0 0 0 0 0 0 0 0 0 0 0 0 0 0 0 0.35 0"/>
<feBlend mode="normal" in2="BackgroundImageFix" result="effect1_dropShadow_373_1689"/>
<feBlend mode="normal" in="SourceGraphic" in2="effect1_dropShadow_373_1689" result="shape"/>
</filter>
</defs>
</svg>
