<svg width="24" height="17" viewBox="0 0 24 17" fill="none" xmlns="http://www.w3.org/2000/svg">
<path d="M12.0631 0C14.1299 0 15.8055 2.02032 15.8055 4.51251C15.8055 6.24092 14.9995 7.74204 13.8161 8.5L15.1884 9.15687L18.8404 10.9061C19.1932 11.0883 19.3693 11.3973 19.3693 11.8345V15.9884C19.3403 16.5078 19.0386 16.9918 18.5494 17H5.55698C4.9985 16.9498 4.71598 16.4853 4.71048 15.9884V11.8345C4.71048 11.3973 4.88656 11.0883 5.23934 10.9061L8.7591 9.15687L10.2219 8.44115C9.08698 7.66614 8.32064 6.19747 8.32064 4.51253C8.32066 2.02032 9.9962 0 12.0631 0ZM18.0995 1.58684C18.989 1.62173 19.6939 2.01922 20.2295 2.65258C20.8219 3.41514 21.1107 4.32052 21.1163 5.22118C21.0799 6.55301 20.5029 7.81382 19.4757 8.47331L23.5767 10.4416C23.859 10.5509 24 10.8059 24 11.2067V14.5405C23.978 14.9826 23.7557 15.3542 23.3389 15.3606H20.6132V11.8345C20.5681 10.8918 20.1395 10.1299 19.3693 9.75803L16.6444 8.4192C16.4327 8.29165 16.2297 8.11828 16.0357 7.89967C17.1592 6.10933 17.3152 3.96497 16.5912 2.07892C17.0621 1.78125 17.5914 1.58996 18.0995 1.58684ZM5.92782 1.58684C6.50948 1.59942 7.04702 1.82064 7.4886 2.13306C6.78426 4.03619 6.97854 6.18187 8.01824 7.84472C7.7889 8.118 7.55016 8.32759 7.30318 8.47335L4.68388 9.75803C3.88594 10.21 3.47448 10.9787 3.46656 11.8346V15.3606H0.66186C0.2006 15.3195 0.00399971 14.9395 0 14.5405V11.2067C0 10.8424 0.140999 10.5873 0.423258 10.4416L4.47188 8.44586C3.42192 7.64633 2.8947 6.44806 2.8845 5.22118C2.91242 4.25012 3.19964 3.34847 3.77128 2.65258C4.3686 1.98336 5.10948 1.59393 5.92782 1.58684Z" fill="#4D286D"/>
</svg>
