<svg width="21" height="19" viewBox="0 0 21 19" fill="none" xmlns="http://www.w3.org/2000/svg">
<path d="M2.92036 10.7809V13.841C2.92036 14.6359 3.32213 15.3764 3.96497 15.7576L8.98709 18.7305C9.58974 19.0898 10.3129 19.0898 10.9156 18.7305L15.9377 15.7576C16.5805 15.3764 16.9823 14.6359 16.9823 13.841V10.7809L10.9156 14.3746C10.3129 14.7339 9.58974 14.7339 8.98709 14.3746L2.92036 10.7809ZM8.98709 0.261356L0.51979 5.27067C-0.173263 5.68448 -0.173263 6.77346 0.51979 7.18728L8.98709 12.1966C9.58974 12.556 10.3129 12.556 10.9156 12.1966L18.9912 7.41596V13.8518C18.9912 14.4508 19.4431 14.9408 19.9956 14.9408C20.548 14.9408 21 14.4508 21 13.8518V6.87147C21 6.46855 20.7991 6.10919 20.4777 5.91317L10.9156 0.261356C10.6188 0.0897591 10.2877 0 9.95133 0C9.61501 0 9.28385 0.0897591 8.98709 0.261356Z" fill="#4D286D"/>
</svg>
