<svg width="19" height="20" viewBox="0 0 19 20" fill="none" xmlns="http://www.w3.org/2000/svg">
<path d="M6.44643 10H16.9643C18.0882 10 19 10.8399 19 11.875V18.125C19 19.1602 18.0882 20 16.9643 20H2.03571C0.91183 20 0 19.1602 0 18.125V11.875C0 10.8399 0.91183 10 2.03571 10H3.05357V5.99612C3.05357 2.71488 5.91629 0.0117572 9.47879 3.84577e-05C13.0413 -0.0116803 15.9464 2.65628 15.9464 5.93753V6.56253C15.9464 7.08206 15.4926 7.50002 14.9286 7.50002H13.5714C13.0074 7.50002 12.5536 7.08206 12.5536 6.56253V5.93753C12.5536 4.37894 11.1667 3.10941 9.47031 3.12503C7.79085 3.14066 6.44643 4.42581 6.44643 5.97268V10Z" fill="#4D286D"/>
</svg>
